<?xml version="1.0" ?><!DOCTYPE svg  PUBLIC '-//W3C//DTD SVG 1.1//EN'  'http://www.w3.org/Graphics/SVG/1.1/DTD/svg11.dtd'><svg enable-background="new 0 0 65 65" height="65px" version="1.1" viewBox="0 0 65 65" width="65px" xml:space="preserve" xmlns="http://www.w3.org/2000/svg" xmlns:xlink="http://www.w3.org/1999/xlink"><g id="Layer_2"><g><path d="M57,64H8c-0.552,0-1-0.447-1-1v-6c0-0.553,0.448-1,1-1h49c0.552,0,1,0.447,1,1v6    C58,63.553,57.552,64,57,64z M9,62h47v-4H9V62z" fill="#92278F"/></g><g><path d="M54,58H11c-0.552,0-1-0.447-1-1v-4c0-0.553,0.448-1,1-1h43c0.552,0,1,0.447,1,1v4    C55,57.553,54.552,58,54,58z M12,56h41v-2H12V56z" fill="#92278F"/></g><g><path d="M23.5,53h-10c-0.276,0-0.5-0.224-0.5-0.5v-3c0-0.276,0.224-0.5,0.5-0.5h10c0.276,0,0.5,0.224,0.5,0.5v3    C24,52.776,23.776,53,23.5,53z M14,52h9v-2h-9V52z" fill="#92278F"/></g><g><path d="M23.5,35h-10c-0.276,0-0.5-0.224-0.5-0.5v-4c0-0.276,0.224-0.5,0.5-0.5h10c0.276,0,0.5,0.224,0.5,0.5v4    C24,34.776,23.776,35,23.5,35z M14,34h9v-3h-9V34z" fill="#92278F"/></g><g><path d="M37.5,35h-10c-0.276,0-0.5-0.224-0.5-0.5v-4c0-0.276,0.224-0.5,0.5-0.5h10c0.276,0,0.5,0.224,0.5,0.5v4    C38,34.776,37.776,35,37.5,35z M28,34h9v-3h-9V34z" fill="#92278F"/></g><g><path d="M51.5,35h-10c-0.276,0-0.5-0.224-0.5-0.5v-4c0-0.276,0.224-0.5,0.5-0.5h10c0.276,0,0.5,0.224,0.5,0.5v4    C52,34.776,51.776,35,51.5,35z M42,34h9v-3h-9V34z" fill="#92278F"/></g><g><path d="M51.5,53h-10c-0.276,0-0.5-0.224-0.5-0.5v-3c0-0.276,0.224-0.5,0.5-0.5h10c0.276,0,0.5,0.224,0.5,0.5v3    C52,52.776,51.776,53,51.5,53z M42,52h9v-2h-9V52z" fill="#92278F"/></g><g><path d="M37.5,53h-10c-0.276,0-0.5-0.224-0.5-0.5v-3c0-0.276,0.224-0.5,0.5-0.5h10c0.276,0,0.5,0.224,0.5,0.5v3    C38,52.776,37.776,53,37.5,53z M28,52h9v-2h-9V52z" fill="#92278F"/></g><g><path d="M57,32H8c-0.425,0-0.803-0.269-0.944-0.669c-0.141-0.401-0.012-0.848,0.32-1.112l25.044-20    c0.371-0.298,0.9-0.292,1.265,0.014l23.956,20c0.323,0.27,0.442,0.713,0.299,1.108C57.797,31.736,57.421,32,57,32z M10.855,30    h43.387L33.03,12.291L10.855,30z" fill="#92278F"/></g><g><path d="M33,29.5c-3.584,0-6.5-2.916-6.5-6.5s2.916-6.5,6.5-6.5s6.5,2.916,6.5,6.5S36.584,29.5,33,29.5z M33,17.5    c-3.033,0-5.5,2.468-5.5,5.5s2.467,5.5,5.5,5.5s5.5-2.468,5.5-5.5S36.033,17.5,33,17.5z" fill="#FFBE06"/></g><g><path d="M32.443,26.946v-1.067c-0.693-0.021-1.386-0.22-1.782-0.484l0.297-1.033    c0.429,0.252,1.045,0.483,1.716,0.483c0.693,0,1.166-0.341,1.166-0.869c0-0.495-0.385-0.813-1.199-1.11    c-1.155-0.419-1.903-0.947-1.903-1.971c0-0.945,0.66-1.672,1.771-1.869v-1.078h0.902v1.023c0.693,0.021,1.166,0.187,1.518,0.362    l-0.297,1.013c-0.264-0.121-0.748-0.375-1.497-0.375c-0.77,0-1.045,0.396-1.045,0.771c0,0.451,0.396,0.704,1.331,1.078    c1.232,0.462,1.782,1.056,1.782,2.035c0,0.936-0.649,1.761-1.859,1.958v1.134H32.443z" fill="#00A651"/></g><g><rect fill="#92278F" height="15" width="2" x="43" y="34"/><rect fill="#92278F" height="15" width="2" x="48" y="34"/></g><g><rect fill="#92278F" height="15" width="2" x="29" y="34"/><rect fill="#92278F" height="15" width="2" x="34" y="34"/></g><polygon fill="#92278F" points="20,34 20,49 17,49 17,34 15,34 15,50 22,50 22,34  "/></g><g id="Layer_3"/></svg>